<svg width="163" height="27" viewBox="0 0 163 27" fill="none" xmlns="http://www.w3.org/2000/svg">
<path d="M8.33333 5C3.73333 5 0 8.73333 0 13.3333C0 17.9333 3.73333 21.6667 8.33333 21.6667C12.9333 21.6667 16.6667 17.9333 16.6667 13.3333C16.6667 8.73333 12.9333 5 8.33333 5ZM9.16667 7.75L10.2917 6.95833C11.8083 7.425 13.1 8.425 13.9417 9.74167L13.6167 10.8583L12.4917 11.2417L9.16667 8.91667V7.75ZM6.375 6.95833L7.5 7.75V8.91667L4.175 11.2417L3.05 10.8583L2.725 9.74167C3.56667 8.43333 4.85833 7.43333 6.375 6.95833ZM4.23333 17.5917L3.28333 17.675C2.275 16.5083 1.66667 14.9917 1.66667 13.3333C1.66667 13.2333 1.675 13.1417 1.68333 13.0417L2.51667 12.4333L3.66667 12.8333L4.88333 16.45L4.23333 17.5917ZM10.4167 19.6583C9.75834 19.875 9.05834 20 8.33333 20C7.60833 20 6.90833 19.875 6.25 19.6583L5.675 18.4167L6.20833 17.5H10.4667L11 18.425L10.4167 19.6583ZM10.225 15.8333H6.44167L5.31667 12.4833L8.33333 10.3667L11.3583 12.4833L10.225 15.8333ZM13.3833 17.675L12.4333 17.5917L11.775 16.45L12.9917 12.8333L14.15 12.4417L14.9833 13.05C14.9917 13.1417 15 13.2333 15 13.3333C15 14.9917 14.3917 16.5083 13.3833 17.675Z" fill="#000E14"/>
<path d="M24.71 6.752H32.99V9.272H27.32V12.278H32.234V14.798H27.32V20H24.71V6.752ZM34.693 13.394C34.693 12.482 34.867 11.618 35.215 10.802C35.563 9.986 36.043 9.266 36.655 8.642C37.279 8.006 37.999 7.508 38.815 7.148C39.631 6.788 40.501 6.608 41.425 6.608C42.361 6.608 43.237 6.788 44.053 7.148C44.869 7.508 45.589 8.006 46.213 8.642C46.849 9.266 47.341 9.986 47.689 10.802C48.049 11.618 48.229 12.482 48.229 13.394C48.229 14.33 48.049 15.206 47.689 16.022C47.341 16.838 46.849 17.558 46.213 18.182C45.589 18.794 44.869 19.274 44.053 19.622C43.237 19.97 42.367 20.144 41.443 20.144C40.507 20.144 39.631 19.97 38.815 19.622C37.999 19.274 37.279 18.794 36.655 18.182C36.043 17.558 35.563 16.838 35.215 16.022C34.867 15.206 34.693 14.33 34.693 13.394ZM37.393 13.394C37.393 14.174 37.573 14.888 37.933 15.536C38.305 16.172 38.803 16.682 39.427 17.066C40.051 17.438 40.753 17.624 41.533 17.624C42.289 17.624 42.967 17.438 43.567 17.066C44.179 16.682 44.659 16.172 45.007 15.536C45.355 14.888 45.529 14.174 45.529 13.394C45.529 12.59 45.349 11.87 44.989 11.234C44.629 10.586 44.143 10.076 43.531 9.704C42.919 9.32 42.229 9.128 41.461 9.128C40.693 9.128 40.003 9.32 39.391 9.704C38.779 10.076 38.293 10.586 37.933 11.234C37.573 11.87 37.393 12.59 37.393 13.394ZM50.0211 13.394C50.0211 12.482 50.1951 11.618 50.5431 10.802C50.8911 9.986 51.3711 9.266 51.9831 8.642C52.6071 8.006 53.3271 7.508 54.1431 7.148C54.9591 6.788 55.8291 6.608 56.7531 6.608C57.6891 6.608 58.5651 6.788 59.3811 7.148C60.1971 7.508 60.9171 8.006 61.5411 8.642C62.1771 9.266 62.6691 9.986 63.0171 10.802C63.3771 11.618 63.5571 12.482 63.5571 13.394C63.5571 14.33 63.3771 15.206 63.0171 16.022C62.6691 16.838 62.1771 17.558 61.5411 18.182C60.9171 18.794 60.1971 19.274 59.3811 19.622C58.5651 19.97 57.6951 20.144 56.7711 20.144C55.8351 20.144 54.9591 19.97 54.1431 19.622C53.3271 19.274 52.6071 18.794 51.9831 18.182C51.3711 17.558 50.8911 16.838 50.5431 16.022C50.1951 15.206 50.0211 14.33 50.0211 13.394ZM52.7211 13.394C52.7211 14.174 52.9011 14.888 53.2611 15.536C53.6331 16.172 54.1311 16.682 54.7551 17.066C55.3791 17.438 56.0811 17.624 56.8611 17.624C57.6171 17.624 58.2951 17.438 58.8951 17.066C59.5071 16.682 59.9871 16.172 60.3351 15.536C60.6831 14.888 60.8571 14.174 60.8571 13.394C60.8571 12.59 60.6771 11.87 60.3171 11.234C59.9571 10.586 59.4711 10.076 58.8591 9.704C58.2471 9.32 57.5571 9.128 56.7891 9.128C56.0211 9.128 55.3311 9.32 54.7191 9.704C54.1071 10.076 53.6211 10.586 53.2611 11.234C52.9011 11.87 52.7211 12.59 52.7211 13.394ZM64.8022 6.752H73.7302V9.272H70.5082V20H67.8982V9.272H64.8022V6.752ZM80.1371 6.752C81.5171 6.752 82.6151 7.034 83.4311 7.598C84.2471 8.15 84.6551 8.978 84.6551 10.082C84.6551 10.898 84.4511 11.582 84.0431 12.134C83.6471 12.674 83.1011 13.082 82.4051 13.358C81.7211 13.622 80.9351 13.754 80.0471 13.754L79.6331 12.35C80.7251 12.35 81.6911 12.5 82.5311 12.8C83.3831 13.1 84.0551 13.532 84.5471 14.096C85.0391 14.648 85.2851 15.314 85.2851 16.094C85.2851 16.814 85.1531 17.426 84.8891 17.93C84.6371 18.422 84.2891 18.824 83.8451 19.136C83.4131 19.436 82.9211 19.658 82.3691 19.802C81.8171 19.934 81.2471 20 80.6591 20H76.2491V6.752H80.1371ZM80.4431 12.17C80.9591 12.17 81.3371 12.014 81.5771 11.702C81.8291 11.39 81.9551 11.036 81.9551 10.64C81.9551 10.184 81.7991 9.842 81.4871 9.614C81.1871 9.386 80.7791 9.272 80.2631 9.272H78.8591V12.17H80.4431ZM80.5331 17.57C81.1091 17.57 81.5951 17.456 81.9911 17.228C82.3871 16.988 82.5851 16.61 82.5851 16.094C82.5851 15.71 82.4771 15.422 82.2611 15.23C82.0451 15.026 81.7631 14.888 81.4151 14.816C81.0791 14.732 80.7251 14.69 80.3531 14.69H78.8591V17.57H80.5331ZM85.9699 20L91.9459 6.23H92.0899L98.0659 20H95.0419L91.2259 10.316L93.1159 9.02L88.5439 20H85.9699ZM90.0559 15.212H94.0339L94.9519 17.408H89.2459L90.0559 15.212ZM99.9971 6.752H102.607V17.48H108.835V20H99.9971V6.752ZM111.528 6.752H114.138V17.48H120.366V20H111.528V6.752ZM123.958 18.704C123.958 18.332 124.09 18.02 124.354 17.768C124.63 17.516 124.93 17.39 125.254 17.39C125.554 17.39 125.836 17.516 126.1 17.768C126.376 18.02 126.514 18.332 126.514 18.704C126.514 19.1 126.376 19.418 126.1 19.658C125.836 19.886 125.554 20 125.254 20C124.93 20 124.63 19.886 124.354 19.658C124.09 19.418 123.958 19.1 123.958 18.704ZM126.997 20L132.973 6.23H133.117L139.093 20H136.069L132.253 10.316L134.143 9.02L129.571 20H126.997ZM131.083 15.212H135.061L135.979 17.408H130.273L131.083 15.212ZM145.038 6.752C146.682 6.752 147.942 7.16 148.818 7.976C149.694 8.78 150.132 9.86 150.132 11.216C150.132 11.756 150.048 12.302 149.88 12.854C149.724 13.394 149.466 13.886 149.106 14.33C148.758 14.774 148.284 15.134 147.684 15.41C147.096 15.674 146.37 15.806 145.506 15.806H143.634V20H141.024V6.752H145.038ZM145.488 13.268C145.884 13.268 146.214 13.202 146.478 13.07C146.742 12.926 146.946 12.752 147.09 12.548C147.246 12.332 147.354 12.11 147.414 11.882C147.486 11.654 147.522 11.456 147.522 11.288C147.522 11.156 147.498 10.982 147.45 10.766C147.414 10.538 147.33 10.31 147.198 10.082C147.066 9.854 146.862 9.662 146.586 9.506C146.322 9.35 145.962 9.272 145.506 9.272H143.634V13.268H145.488ZM156.482 6.752C158.126 6.752 159.386 7.16 160.262 7.976C161.138 8.78 161.576 9.86 161.576 11.216C161.576 11.756 161.492 12.302 161.324 12.854C161.168 13.394 160.91 13.886 160.55 14.33C160.202 14.774 159.728 15.134 159.128 15.41C158.54 15.674 157.814 15.806 156.95 15.806H155.078V20H152.468V6.752H156.482ZM156.932 13.268C157.328 13.268 157.658 13.202 157.922 13.07C158.186 12.926 158.39 12.752 158.534 12.548C158.69 12.332 158.798 12.11 158.858 11.882C158.93 11.654 158.966 11.456 158.966 11.288C158.966 11.156 158.942 10.982 158.894 10.766C158.858 10.538 158.774 10.31 158.642 10.082C158.51 9.854 158.306 9.662 158.03 9.506C157.766 9.35 157.406 9.272 156.95 9.272H155.078V13.268H156.932Z" fill="#000E14"/>
</svg>
